# xmcd CD database file
#
# Track frame offsets:
#	150
#	11790
#	26607
#	39145
#	53907
#	68742
#	81762
#	95177
#	107237
#	120910
#	135145
#	147022
#	158980
#	171450
#	183710
#	195467
#	209680
#	223895
#	237375
#	249285
#	262945
#	274637
#	286905
#	297840
#	309277
#
# Disc length: 4258 seconds
#
# Revision: 1
# Processed by: cddbd v1.4PL0 Copyright (c) Steve Scherf et al.
# Submitted via: CDex 1.51
#
DISCID=6a10a019
DTITLE=Various Artist - Long Man Blues (Chicago 1951-57)
DYEAR=1954
DGENRE=Blues
TTITLE0=Eddie Boyd - Blue Coat Man(1951)
TTITLE1=LC McKinley - Disgusted
TTITLE2=LC McKinley - Be My Companion
TTITLE3=LC McKinley - Tortured Blues
TTITLE4=LC McKinley - Weeping Willow Blues
TTITLE5=Ernest Cotton - Empty Bed
TTITLE6=Jack Cooley - I Could But I Ain't
TTITLE7=Jack Cooley - Rain On My Window
TTITLE8=Harold Burrage - I Feel So Fine
TTITLE9=Harold Burrage - You're Gonna Cry
TTITLE10=Dennis 'Long Man' Binder - I'm A Lover
TTITLE11=Dennis 'Long Man' Binder - Feel So Good
TTITLE12=Dennis 'Long Man' Binder - The Long Man
TTITLE13=Dennis 'Long Man' Binder - I', A Lover
TTITLE14=Eddie Ware - The Stuff I like
TTITLE15=Eddie Ware - Lonely Broken Heart
TTITLE16=Cliff Butler - Adam's Rib
TTITLE17=Cliff Butler - Jealous Hearted Woman
TTITLE18=Edward Gates White - Tired Of Being Mistreated
TTITLE19=Edward Gates White - Love Is A Mistake
TTITLE20=Edward Gates White - Mother-In-Law
TTITLE21=Edward Gates White - Rockabye Baby
TTITLE22=Arbee Stidham with Earl Hooker - I Stayed Away Too Long
TTITLE23=Arbee Stidham with Earl Hooker - Look Me Straight In The Eye
TTITLE24=Arbee Stidham with Earl Hooker - I Stayed Away Too Long
EXTD=YEAR: 1954
EXTT0=
EXTT1=
EXTT2=
EXTT3=
EXTT4=
EXTT5=
EXTT6=
EXTT7=
EXTT8=
EXTT9=
EXTT10=
EXTT11=
EXTT12=
EXTT13=
EXTT14=
EXTT15=
EXTT16=
EXTT17=
EXTT18=
EXTT19=
EXTT20=
EXTT21=
EXTT22=
EXTT23=
EXTT24=
PLAYORDER=
